<svg xmlns="http://www.w3.org/2000/svg" width="20" height="20" fill="none"><path fill="#EF7D00" fill-rule="evenodd" d="M10 20c5.5228 0 10-4.4772 10-10 0-5.52285-4.4772-10-10-10C4.47715 0 0 4.47715 0 10c0 5.5228 4.47715 10 10 10Z" clip-rule="evenodd"/><path fill="#fff" d="M12.7973 11.8106c-.5132.3225-1.0706.5511-1.6486.6828l1.5872 1.5873c.3252.3244.3252.8513 0 1.1761-.3248.3248-.8513.3248-1.1758 0l-1.56038-1.5597-1.559 1.5597c-.16259.1623-.37557.2436-.5886.2436-.21267 0-.42532-.0813-.58792-.2436-.32484-.3248-.32484-.8513-.00033-1.1761l1.58724-1.5873c-.578-.1317-1.13538-.3606-1.64861-.6828-.38853-.2448-.50532-.7581-.26049-1.147.24425-.3893.75747-.5064 1.14669-.2616 1.16219.7311 2.6596.7314 3.8224 0 .3892-.2448.9025-.1277 1.147.2616.2448.3886.1277.9022-.2608 1.147Z"/><path fill="#fff" fill-rule="evenodd" d="M12.8386 7.33934c0 1.56516-1.2731 2.83816-2.83908 2.83816-1.56567 0-2.83903-1.273-2.83903-2.83816C7.16049 5.77349 8.43385 4.5 9.99952 4.5c1.56598 0 2.83908 1.27349 2.83908 2.83934Zm-1.6633.00037c0-.64827-.5272-1.17551-1.17552-1.17551-.64764 0-1.17551.52724-1.17551 1.17551 0 .64763.52787 1.17498 1.17551 1.17498.64832 0 1.17552-.52735 1.17552-1.17498Z" clip-rule="evenodd"/></svg>