<svg xmlns="http://www.w3.org/2000/svg" width="20" height="20" fill="none"><path fill="#07F" fill-rule="evenodd" d="M10 20c5.5228 0 10-4.4772 10-10 0-5.52285-4.4772-10-10-10C4.47715 0 0 4.47715 0 10c0 5.5228 4.47715 10 10 10Z" clip-rule="evenodd"/><path fill="#fff" d="M10.501 13.5c-3.83286 0-6.01901-2.6276-6.1101-7h1.91992c.06306 3.20921 1.47844 4.5686 2.59956 4.8488V6.5h1.80792v2.76777c1.1071-.11912 2.2701-1.38038 2.6625-2.76777h1.8078c-.3013 1.70971-1.5625 2.97097-2.4594 3.48949.8969.42041 2.3334 1.52051 2.8799 3.51051h-1.99c-.4275-1.3313-1.4924-2.3614-2.9008-2.5015V13.5h-.2173Z"/></svg>