<svg width="64" height="64" fill="none" xmlns="http://www.w3.org/2000/svg"><path fill="#fff" d="M0 0h64v64H0z"/><path d="M57.4795 19.9834v21.7555a3.9836 3.9836 0 0 1-2.4543 3.6863 3.9822 3.9822 0 0 1-1.5248.3054H9.9792A3.9917 3.9917 0 0 1 6 41.7389v-16.037l9.6977-9.6976h37.8027a3.9726 3.9726 0 0 1 3.9791 3.9791Z" fill="#212721"/><path d="m15.6974 16-.0876 5.7748a3.9828 3.9828 0 0 1-3.9829 3.9216h-5.626L15.6975 16Z" fill="#777B77"/><path d="M29.1035 25.0936v11.0295M18.771 25.0936v11.0295M18.771 25.0936h3.7154c1.5389 0 2.7864 1.2475 2.7864 2.7864v0c0 1.5389-1.2475 2.7864-2.7864 2.7864H18.771v-5.5728ZM29.1035 25.0936h3.7154c1.5389 0 2.7864 1.2475 2.7864 2.7864v0c0 1.5389-1.2475 2.7864-2.7864 2.7864h-3.7154v-5.5728ZM39.5527 28.6927c0-1.9877 1.6114-3.5991 3.5991-3.5991v0c1.9877 0 3.5991 1.6114 3.5991 3.5991v3.8313c0 1.9877-1.6114 3.5991-3.5991 3.5991v0c-1.9877 0-3.5991-1.6114-3.5991-3.5991v-3.8313ZM32.8193 30.6664l3.483 5.4567" stroke="#fff" stroke-width="1.8924" stroke-linecap="round" stroke-linejoin="round"/><rect x="37.3467" y="43.8569" width="11.61" height="3.483" rx="1.7415" fill="#78D000"/><path fill-rule="evenodd" clip-rule="evenodd" d="M37.3467 45.5984h11.6099c0-.9618-.7797-1.7415-1.7415-1.7415h-8.1269c-.9618 0-1.7415.7797-1.7415 1.7415Z" fill="#008A00"/></svg>