<svg xmlns="http://www.w3.org/2000/svg" width="138" height="138" fill="none"><mask id="a" width="138" height="138" x="0" y="0" maskUnits="userSpaceOnUse" style="mask-type:alpha"><rect width="138" height="138" fill="#000" fill-opacity=".2" rx="6"/></mask><g mask="url(#a)"><path fill="#000" fill-opacity=".2" d="M0-17.25h138v191.667H0z"/></g><path fill="#D6D6D6" d="M69 73a5 5 0 1 0 0-10 5 5 0 0 0 0 10Z"/><path fill="#D6D6D6" fill-rule="evenodd" d="M64.165 55.797A2 2 0 0 1 65.762 55h6.476a2 2 0 0 1 1.597.797L76.247 59H81a3 3 0 0 1 3 3v14a3 3 0 0 1-3 3H57a3 3 0 0 1-3-3V62a3 3 0 0 1 3-3h4.753l2.412-3.203ZM76 68a7 7 0 1 1-14 0 7 7 0 0 1 14 0Zm-19-7a1 1 0 1 0 0 2h1a1 1 0 1 0 0-2h-1Z" clip-rule="evenodd"/></svg>
