<?xml version="1.0" encoding="utf-8"?>
<!-- Generator: Adobe Illustrator 28.0.0, SVG Export Plug-In . SVG Version: 6.00 Build 0)  -->
<svg version="1.1" id="Layer_1" xmlns="http://www.w3.org/2000/svg" xmlns:xlink="http://www.w3.org/1999/xlink" x="0px" y="0px"
	 viewBox="0 0 1000 300.1" style="enable-background:new 0 0 1000 300.1;" xml:space="preserve">
<style type="text/css">
	.st0{fill:#EE4423;}
	.st1{fill:#F0AB1E;}
</style>
<g>
	<path class="st0" d="M200.9,231.9c2.2-12.4,3.3-41.9,3.3-41.9l-38-3.4l-17.6-59.6c-1.7-7.5,2.9-10,11.4-17.1
		c10.6-8.9,22.4-16,28.1-27.1s0.2-22.8-9-24.3c-17-2.9-54.3,3.3-54.3,3.3c-2.5-9.1,4.7-14.6,5-28.9c0.3-14.3-14-29.5-14-29.5
		C93.5,24.5,100,40.8,105,48.6c5,7.8,6.1,16.4,6.1,16.4c-3.2,1.4-4.9,2.5-4.9,2.5c-7.8-9.2-8.3-20.7-16.7-30.3
		C75.1,20.8,53.8,23,53.8,23C51.6,53.9,70.4,66,79.6,69.2s15.3,8.1,15.3,8.1c-5.8,13.3,0,29.1,7.7,36.8c4.4,4.4,10.4,5.9,8.4,12.8
		c-3.3,12.2-21.2,28.5-39,81.4C51.8,186.5,15,146.2,15,146.2c-2.1-2.2-5.4-2.7-8-1c-2.6,1.7-3.5,5.2-2.1,8l74,143.8h75.5
		c0,0,6.5-1.1,28.4-19.3c29.5-24.6,29.5-49.7,29.5-49.7C207.9,230.3,200.9,231.9,200.9,231.9z"/>
	<path class="st1" d="M128.8,234.8l-6.8-24.5l14.8,13.4l1.4-15.5l-9-13.8l17.4-9.1l57.7,5.5c0,0-2.4,39.6-2.8,40.9
		c0,0-25.2,6.8-51,5.1L128.8,234.8L128.8,234.8z"/>
	<g>
		<path d="M187.8,276.5c26.6-24.1,27-47.6,27-48.6c0-0.9-0.5-1.7-1.2-2.1c-0.7-0.4-1.7-0.5-2.4-0.1c-2.1,1.1-5,2.1-7.2,2.7
			c1.8-13.6,2.8-37.4,2.8-38.5c0-0.2-0.1-0.3-0.1-0.5c0-0.1,0-0.3-0.1-0.4c-0.1-0.2-0.2-0.3-0.3-0.5c-0.1-0.1-0.1-0.2-0.2-0.3
			c-0.1-0.1-0.3-0.2-0.4-0.4c-0.1-0.1-0.2-0.2-0.3-0.2c-0.2-0.1-0.5-0.2-0.8-0.2c-0.1,0-0.1,0-0.1,0l-12-1.1l1-6.7
			c1.1-7.1-3.5-13.8-10.5-15.3c-3.9-0.9-7.9,0-11,2.4s-5.1,6-5.4,9.9l-0.1,0.7c-0.3-1-0.7-2-1.2-2.8L151,126.3
			c-1.1-4.8,0.8-6.7,7.6-12.1c0.9-0.8,2-1.6,3.1-2.5c2.4-2,4.9-4,7.4-5.9c4.4-3.4,8.7-6.8,12.4-10.4l0,0l0,0
			c3.6-3.5,6.6-7.2,8.9-11.6c3.3-6.3,3.5-13.3,0.6-19.1c-2.3-4.7-6.4-7.8-11.1-8.8c0,0,0,0-0.1,0l-0.5-0.1c0,0-0.1,0-0.1,0
			c-15-2.4-43.8,1.7-52.3,3c-0.2-3.1,0.7-5.8,2-9.4c1.5-4.2,3.4-9.4,3.5-16.7c0.3-15.2-14-30.5-14.6-31.2c-0.4-0.5-1.1-0.8-1.7-0.8
			c-0.7,0-1.3,0.2-1.8,0.7C92.5,22.1,96.1,39.2,103,50c3.3,5.2,4.8,10.9,5.4,13.6c-0.6,0.3-1.1,0.5-1.5,0.8c-2.8-3.8-4.5-8-6.3-12.4
			c-2.3-5.5-4.6-11.2-9.2-16.4c-15.1-17.2-36.9-15.1-37.8-15c-1.2,0.1-2.1,1.1-2.2,2.3C48.8,59,73.7,69.8,78.8,71.5
			c6.1,2.2,10.8,5.1,13.1,6.7c-4.9,13.8,0.7,29.5,8.9,37.6c1.3,1.3,2.7,2.3,3.9,3.3c3.4,2.6,4.8,3.8,3.8,7.1c0,0,0,0,0,0l0,0
			c-1.1,3.9-3.9,8.5-7.8,14.9c-7.4,12.1-18.5,30.1-29.8,62.4c-20.3-22-53.7-58.6-54.1-59c-2.9-3.2-7.6-3.7-11.2-1.4
			c-3.7,2.4-4.9,7.2-2.9,11.2L70,285.1c-4,4.4-5.8,9.1-5.8,11.9c0,1.4,1.1,2.5,2.5,2.5h64.4l0,0h8.6l0,0H204c1.4,0,2.5-1.1,2.5-2.5
			C206.5,292,200.8,281.4,187.8,276.5L187.8,276.5z M130.3,232.5l-3.9-15.4l8.3,7.9c1.4,1.3,3.1,1.9,4.8,1.9c1.5,0,3.1-0.5,4.4-1.5
			c2.8-2.2,3.5-6.2,1.6-9.3l-13.2-21.3l12.1-6.3c1.1,9.1,3.9,33.3,5.5,45.6C142.7,234,136.1,233.3,130.3,232.5L130.3,232.5z
			 M150.9,182.2c-0.6-1.7-0.3-3.5,0.6-5c1-1.5,2.6-2.4,4.4-2.5c1.9-0.1,3.7,0.7,4.8,2.1l2,6.9l-11.7-1.1L150.9,182.2L150.9,182.2z
			 M155,234.4c-1.6-12.3-4.6-38.1-5.7-46.9l16.4,1.5l-0.7,9.5c-0.1,1.4,0.9,2.6,2.3,2.6c1.4,0.1,2.6-0.9,2.6-2.3l0.7-9.4l16.1,1.4
			l-1.3,8.3c-0.2,1.4,0.7,2.6,2.1,2.8c0.1,0,0.3,0,0.4,0c1.2,0,2.2-0.9,2.4-2.1l1.3-8.6l10,0.9c-0.3,6.9-1.3,27-2.9,37.6
			C182.9,233.4,168.1,234.5,155,234.4L155,234.4z M174.9,170.8c2-1.5,4.6-2.1,7-1.5c4.4,1,7.3,5.2,6.6,9.7l-1.1,7l-16.5-1.5l0.5-7.4
			C171.7,174.5,172.9,172.2,174.9,170.8L174.9,170.8z M8.4,147.3c1.5-1,3.5-0.8,4.8,0.6c0.4,0.4,35.9,39.3,56,61.1
			c-0.9,3.1-3.2,11.3-4.9,19.4c-0.3,1.3,0.6,2.6,1.9,2.9c0.2,0,0.3,0.1,0.5,0.1c1.2,0,2.2-0.8,2.4-2c2-9.9,5.1-19.9,5.2-20.2
			c11.5-34.3,23-53,30.6-65.3c4.1-6.7,7.1-11.6,8.4-16.1l0,0l0,0c0,0,0,0,0,0l0,0c1.9-6.7-2.3-9.8-5.6-12.4
			c-1.2-0.9-2.3-1.8-3.4-2.8c-7.5-7.5-12.2-22.3-7.1-34c0.4-1,0.2-2.2-0.7-2.9c-0.3-0.2-6.5-5.2-16-8.6
			c-4.3-1.5-25.4-10.6-24.2-41.5c5.5,0,20.6,1.1,31.5,13.5c4,4.6,6.1,9.7,8.3,15c2.1,5.2,4.3,10.5,8.4,15.3c0.8,0.9,2.2,1.1,3.2,0.5
			c0,0,1.6-1,4.6-2.3c1-0.4,1.6-1.5,1.4-2.6c-0.1-0.4-1.3-9.2-6.5-17.4c-8.2-12.8-5.3-26.4,8.6-40.5c3.6,4.4,11.8,15.5,11.6,25.8
			c-0.1,6.5-1.8,11-3.2,15.1c-1.7,4.7-3.2,9-1.7,14.5c0.3,1.2,1.5,2,2.8,1.8c0.3-0.1,30.7-5.1,48.6-3.9c-1.3,2.1-2,4.5-2,7
			c0,7.7,6.2,13.9,13.9,13.9c0.1,0,0.3,0,0.4,0c-0.1,0.1-0.1,0.3-0.2,0.4c-2,3.9-4.9,7.3-8.1,10.5c-1.7,1.5-13.7,11.1-25.8-1.2
			c-1-1-2.5-1-3.5,0s-1,2.5,0,3.5c5.7,5.8,11.4,7.7,16.5,7.7c0.3,0,0.6,0,0.9,0c0,0,0,0,0,0c-2.5,1.9-5,3.9-7.5,6
			c-1.1,0.9-2.1,1.7-3,2.5c-6.7,5.4-11.1,9-9.2,17.1c0,0.1,0.1,0.1,0.1,0.1h0l12.5,42.5c-1-0.2-2-0.4-3.1-0.3
			c-3.3,0.2-6.3,1.9-8.1,4.7c-1.6,2.4-2.1,5.2-1.6,7.9c-0.2,0.1-0.4,0.1-0.6,0.2l-15.6,8.1l-17.5-28.2c-0.7-1.2-2.2-1.5-3.4-0.8
			c-1.2,0.7-1.5,2.2-0.8,3.4l25,40.4l-5.4,6.1L97.4,183c-1-0.9-2.6-0.9-3.5,0.1s-0.9,2.6,0.1,3.5l25.7,24.2l5.3,20.9
			c-14.2-2.4-22.8-5.6-23-5.7c-1.3-0.5-2.7,0.2-3.2,1.4c-0.5,1.3,0.2,2.7,1.4,3.2c1.3,0.5,23.8,8.9,56.8,8.9
			c13.3,0,28.4-1.4,44.4-5.1l0,0c0.4-0.1,4.1-0.9,7.9-2.3c-1.3,7.7-6.6,25.4-27.3,43c-2.6-0.5-5.5-0.9-8.6-0.9
			c-19.5,0-32,15.9-35.2,20.4h-5.9c-3.2-4.5-15.7-20.4-35.2-20.4c-10.4,0-18,3.3-23.4,7.5L7.2,152C6.3,150.4,6.8,148.3,8.4,147.3z"
			/>
		<path d="M141.5,85.4c4.4,0,8.1-3.6,8.1-8.1s-3.6-8.1-8.1-8.1s-8.1,3.6-8.1,8.1S137.1,85.4,141.5,85.4z"/>
	</g>
</g>
<g>
	<polygon points="383.5,127.9 357.9,127.9 313.8,174.4 313.8,127.9 290.9,127.9 290.9,227.5 313.8,227.5 313.8,202.3 327.1,188.4 
		359,227.5 385.9,227.5 342.3,172.3 	"/>
	<path d="M423.7,149.8c-6.1,0-12,0.8-17.9,2.4c-5.9,1.6-10.9,3.9-15.1,6.8l8,15.5c2.8-2.2,6.1-3.9,10-5.2s7.9-1.9,12-1.9
		c6,0,10.4,1.3,13.3,4c2.9,2.7,4.3,6.4,4.3,11.1h-17.6c-7.8,0-14.1,1-18.9,2.9s-8.4,4.6-10.6,8c-2.2,3.4-3.3,7.4-3.3,11.9
		s1.1,8.3,3.4,11.8s5.5,6.3,9.8,8.3s9.4,3.1,15.4,3.1c6.7,0,12.2-1.3,16.5-3.8c2.9-1.8,5.1-4.1,6.8-6.9v9.6h20.8v-43.7
		c0-11.7-3.2-20.2-9.7-25.7C444.4,152.6,435.4,149.8,423.7,149.8L423.7,149.8z M432,211c-2.9,1.8-6.3,2.6-10,2.6
		c-3.9,0-6.9-0.8-9.2-2.5s-3.3-3.9-3.3-6.8c0-2.6,1-4.7,2.9-6.4c1.9-1.7,5.5-2.6,10.7-2.6h15.2v7.8C437,206.7,434.9,209.3,432,211
		L432,211z"/>
	<path d="M543.4,153.4c-4.8-2.4-10.2-3.6-16.3-3.6c-6.5,0-12.4,1.4-17.5,4.1c-3,1.6-5.6,3.7-7.8,6.2V151h-21.2v76.5h22.2v-37.8
		c0-4.7,0.8-8.6,2.4-11.7s3.7-5.3,6.5-6.8c2.8-1.5,6-2.2,9.5-2.2c4.9,0,8.8,1.5,11.5,4.4c2.7,2.9,4,7.5,4,13.6v40.4h22.2v-43.8
		c0-7.8-1.4-14.1-4.1-19.1C551.9,159.6,548.1,155.9,543.4,153.4z"/>
	<path d="M637.3,160.8c-2.3-2.9-5-5.3-8.2-7c-4.9-2.6-10.6-3.9-17.1-3.9c-7.1,0-13.5,1.5-19.3,4.6c-5.7,3-10.3,7.3-13.8,12.9
		c-3.5,5.6-5.2,12.1-5.2,19.6s1.7,13.9,5.2,19.4c3.5,5.5,8.1,9.9,13.8,12.9c5.7,3.1,12.2,4.6,19.3,4.6c6.5,0,12.1-1.3,17.1-4
		c2.7-1.5,5.1-3.4,7.1-5.7v3.4c0,6.9-1.8,12.1-5.3,15.6c-3.5,3.5-9.3,5.3-17.1,5.3c-4.8,0-9.7-0.8-14.7-2.3s-9.1-3.7-12.3-6.3
		l-8.8,15.9c4.5,3.5,10,6.1,16.7,7.9s13.6,2.6,20.8,2.6c13.8,0,24.5-3.4,31.8-10.1c7.4-6.7,11.1-17.2,11.1-31.4V151h-21L637.3,160.8
		L637.3,160.8z M633.9,196.6c-1.7,2.8-4.1,5.1-7.1,6.6c-3,1.6-6.5,2.4-10.4,2.4s-7.3-0.8-10.4-2.4c-3-1.6-5.4-3.8-7.2-6.6
		s-2.6-6.1-2.6-9.8s0.9-7.1,2.6-9.9c1.8-2.8,4.2-5,7.2-6.5c3-1.6,6.5-2.4,10.4-2.4s7.3,0.8,10.4,2.4c3,1.6,5.4,3.8,7.1,6.5
		c1.7,2.8,2.6,6.1,2.6,9.9S635.6,193.8,633.9,196.6z"/>
	<path d="M709.8,149.8c-6.1,0-12,0.8-17.9,2.4c-5.9,1.6-10.9,3.9-15.1,6.8l8,15.5c2.8-2.2,6.1-3.9,10-5.2s7.9-1.9,12-1.9
		c6,0,10.4,1.3,13.3,4c2.9,2.7,4.3,6.4,4.3,11.1h-17.6c-7.8,0-14.1,1-18.9,2.9s-8.4,4.6-10.6,8c-2.2,3.4-3.3,7.4-3.3,11.9
		s1.1,8.3,3.4,11.8c2.3,3.5,5.5,6.3,9.8,8.3s9.4,3.1,15.4,3.1c6.7,0,12.2-1.3,16.5-3.8c2.9-1.8,5.2-4.1,6.8-6.9v9.6h20.8v-43.7
		c0-11.7-3.2-20.2-9.7-25.7C730.6,152.6,721.5,149.8,709.8,149.8L709.8,149.8z M718.1,211c-2.9,1.8-6.3,2.6-10,2.6
		c-3.9,0-6.9-0.8-9.2-2.5s-3.3-3.9-3.3-6.8c0-2.6,1-4.7,2.9-6.4c1.9-1.7,5.5-2.6,10.7-2.6h15.2v7.8C723.1,206.7,721,209.3,718.1,211
		L718.1,211z"/>
	<path d="M787.9,161.1V151h-21.2v76.5h22.2v-36.1c0-7.3,1.9-12.7,5.6-16.1c3.7-3.5,8.7-5.2,14.7-5.2c0.8,0,1.7,0,2.4,0.1
		s1.6,0.1,2.6,0.2v-20.5c-7.2,0-13.3,1.4-18.3,4.2C792.6,155.8,790,158.3,787.9,161.1L787.9,161.1z"/>
	<path d="M884.7,154.9c-6.3-3.4-13.6-5.1-21.6-5.1s-15.4,1.7-21.7,5.1c-6.3,3.4-11.3,8-14.9,13.9c-3.7,5.9-5.5,12.7-5.5,20.4
		s1.8,14.3,5.5,20.3c3.7,5.9,8.6,10.6,14.9,14c6.3,3.4,13.5,5.1,21.7,5.1s15.3-1.7,21.6-5.1c6.3-3.4,11.3-8.1,14.9-14
		c3.6-5.9,5.4-12.7,5.4-20.3s-1.8-14.6-5.4-20.5C896.1,162.9,891.1,158.2,884.7,154.9L884.7,154.9z M880,200.5c-1.7,3.2-4,5.6-7,7.3
		c-2.9,1.7-6.3,2.6-10,2.6s-7-0.9-10-2.6c-2.9-1.7-5.3-4.1-7-7.3c-1.8-3.2-2.6-6.9-2.6-11.3s0.9-8.2,2.6-11.4c1.8-3.1,4.1-5.6,7-7.3
		c2.9-1.7,6.3-2.6,10-2.6s7,0.9,10,2.6c2.9,1.7,5.3,4.1,7,7.3c1.7,3.1,2.6,6.9,2.6,11.4S881.8,197.3,880,200.5z"/>
	<path d="M992.8,168.7c-3.6-5.9-8.6-10.5-14.9-13.9c-6.3-3.4-13.6-5.1-21.6-5.1s-15.4,1.7-21.7,5.1c-6.3,3.4-11.3,8-14.9,13.9
		c-3.7,5.9-5.5,12.7-5.5,20.4s1.8,14.3,5.5,20.3c3.7,5.9,8.6,10.6,14.9,14c6.3,3.4,13.5,5.1,21.7,5.1s15.3-1.7,21.6-5.1
		c6.3-3.4,11.3-8.1,14.9-14c3.6-5.9,5.4-12.7,5.4-20.3S996.4,174.6,992.8,168.7L992.8,168.7z M973.2,200.5c-1.7,3.2-4,5.6-7,7.3
		c-2.9,1.7-6.3,2.6-10,2.6s-7-0.9-10-2.6c-2.9-1.7-5.3-4.1-7-7.3c-1.8-3.2-2.6-6.9-2.6-11.3s0.9-8.2,2.6-11.4c1.8-3.1,4.1-5.6,7-7.3
		c2.9-1.7,6.3-2.6,10-2.6s7,0.9,10,2.6c2.9,1.7,5.3,4.1,7,7.3c1.7,3.1,2.6,6.9,2.6,11.4S974.9,197.3,973.2,200.5z"/>
</g>
</svg>
