<?xml version="1.0" encoding="utf-8"?>
<!-- Generator: Adobe Illustrator 28.0.0, SVG Export Plug-In . SVG Version: 6.00 Build 0)  -->
<svg version="1.1" id="Layer_1" xmlns="http://www.w3.org/2000/svg" xmlns:xlink="http://www.w3.org/1999/xlink" x="0px" y="0px"
	 viewBox="0 0 842.8 1000" style="enable-background:new 0 0 842.8 1000;" xml:space="preserve">
<style type="text/css">
	.st0{fill:#EE4423;}
	.st1{fill:#F0AB1E;}
</style>
<g>
	<polygon points="114.7,844.8 84.7,844.8 32.9,899.3 32.9,844.8 6,844.8 6,961.7 32.9,961.7 32.9,932.2 48.5,915.8 86,961.7 
		117.6,961.7 66.3,896.8 	"/>
	<path d="M162,870.5c-7.1,0-14.1,1-21.1,2.8s-12.8,4.6-17.7,8l9.3,18.2c3.2-2.6,7.1-4.6,11.8-6.1c4.6-1.5,9.3-2.3,14.1-2.3
		c7,0,12.2,1.6,15.6,4.7c3.4,3.1,5.1,7.5,5.1,13h-20.7c-9.1,0-16.5,1.1-22.2,3.4c-5.7,2.3-9.8,5.4-12.4,9.4c-2.6,4-3.9,8.7-3.9,14
		s1.3,9.8,4,13.9c2.7,4.1,6.5,7.4,11.5,9.8c5,2.4,11,3.6,18,3.6c7.9,0,14.4-1.5,19.4-4.5c3.4-2,6.1-4.8,8-8.1v11.3h24.4v-51.3
		c0-13.7-3.8-23.8-11.4-30.2C186.3,873.7,175.7,870.5,162,870.5L162,870.5z M171.7,942.4c-3.4,2.1-7.4,3.1-11.7,3.1
		c-4.6,0-8.2-1-10.8-2.9s-3.9-4.6-3.9-7.9c0-3,1.1-5.5,3.4-7.5s6.5-3,12.6-3h17.9v9.2C177.6,937.3,175.1,940.3,171.7,942.4
		L171.7,942.4z"/>
	<path d="M302.6,874.7c-5.6-2.8-12-4.3-19.1-4.3c-7.7,0-14.5,1.6-20.5,4.8c-3.6,1.9-6.6,4.4-9.2,7.3v-10.8h-24.9v89.9h26.1v-44.4
		c0-5.6,0.9-10.1,2.8-13.7c1.8-3.6,4.4-6.2,7.7-7.9c3.3-1.7,7-2.6,11.1-2.6c5.8,0,10.3,1.7,13.5,5.2c3.2,3.5,4.8,8.8,4.8,16v47.4
		h26.1v-51.5c0-9.1-1.6-16.6-4.8-22.5C312.6,881.9,308.2,877.6,302.6,874.7L302.6,874.7z"/>
	<path d="M412.9,883.3c-2.7-3.5-5.9-6.2-9.7-8.3c-5.8-3.1-12.5-4.6-20-4.6c-8.4,0-15.9,1.8-22.6,5.3c-6.7,3.6-12.1,8.6-16.2,15.1
		c-4.1,6.5-6.1,14.2-6.1,23s2,16.3,6.1,22.8s9.5,11.6,16.2,15.2c6.7,3.6,14.3,5.4,22.6,5.4c7.6,0,14.2-1.6,20-4.7
		c3.2-1.7,5.9-4,8.4-6.7v4c0,8.1-2.1,14.2-6.3,18.4c-4.2,4.1-10.9,6.2-20.1,6.2c-5.7,0-11.4-0.9-17.3-2.8
		c-5.9-1.8-10.7-4.3-14.5-7.4l-10.4,18.7c5.2,4.1,11.8,7.2,19.6,9.3s16,3.1,24.5,3.1c16.3,0,28.7-4,37.4-11.9s13-20.2,13-36.9v-74.8
		h-24.7L412.9,883.3L412.9,883.3z M408.9,925.4c-2,3.3-4.8,5.9-8.4,7.8c-3.6,1.8-7.6,2.8-12.2,2.8s-8.6-0.9-12.2-2.8
		c-3.6-1.8-6.4-4.4-8.4-7.8s-3.1-7.2-3.1-11.5s1-8.3,3.1-11.6c2.1-3.3,4.9-5.8,8.4-7.7c3.6-1.8,7.6-2.8,12.2-2.8s8.6,0.9,12.2,2.8
		c3.6,1.8,6.4,4.4,8.4,7.7c2,3.3,3,7.2,3,11.6S410.9,922.1,408.9,925.4z"/>
	<path d="M498.1,870.5c-7.1,0-14.1,1-21,2.8c-6.9,1.9-12.8,4.6-17.7,8l9.4,18.2c3.2-2.6,7.1-4.6,11.8-6.1c4.6-1.5,9.3-2.3,14.1-2.3
		c7,0,12.2,1.6,15.6,4.7c3.4,3.1,5.1,7.5,5.1,13h-20.7c-9.1,0-16.5,1.1-22.2,3.4c-5.7,2.3-9.8,5.4-12.5,9.4c-2.6,4-3.9,8.7-3.9,14
		s1.3,9.8,4,13.9s6.5,7.4,11.5,9.8c5,2.4,11,3.6,18,3.6c7.9,0,14.4-1.5,19.4-4.5c3.4-2,6-4.8,8-8.1v11.3h24.4v-51.3
		c0-13.7-3.8-23.8-11.4-30.2C522.4,873.7,511.8,870.5,498.1,870.5L498.1,870.5z M507.8,942.4c-3.5,2.1-7.4,3.1-11.7,3.1
		c-4.6,0-8.2-1-10.8-2.9s-3.9-4.6-3.9-7.9c0-3,1.1-5.5,3.4-7.5s6.5-3,12.6-3h17.9v9.2C513.7,937.3,511.2,940.3,507.8,942.4
		L507.8,942.4z"/>
	<path d="M589.8,883.8v-12h-24.9v89.9H591v-42.4c0-8.6,2.2-14.9,6.6-19c4.4-4.1,10.2-6.1,17.3-6.1c1,0,2,0,2.8,0.1s1.9,0.1,3,0.2
		v-24.1c-8.5,0-15.7,1.7-21.5,4.9C595.3,877.5,592.3,880.4,589.8,883.8L589.8,883.8z"/>
	<path d="M703.6,876.4c-7.5-4-15.9-5.9-25.4-5.9s-18.1,2-25.5,5.9s-13.3,9.4-17.5,16.4c-4.3,7-6.4,15-6.4,24s2.1,16.8,6.4,23.8
		c4.3,7,10.1,12.5,17.5,16.5s15.9,6,25.5,6s17.9-2,25.4-6c7.5-4,13.3-9.5,17.5-16.5s6.3-14.9,6.3-23.8s-2.1-17.2-6.3-24
		C716.9,885.8,711,880.4,703.6,876.4z M698.1,930c-2,3.7-4.7,6.6-8.2,8.6c-3.5,2-7.3,3-11.7,3s-8.2-1-11.7-3c-3.5-2-6.2-4.9-8.3-8.6
		s-3.1-8.2-3.1-13.3s1-9.7,3.1-13.4s4.8-6.5,8.3-8.5s7.3-3,11.7-3s8.2,1,11.7,3s6.2,4.8,8.2,8.5c2,3.7,3,8.1,3,13.4
		S700.1,926.3,698.1,930z"/>
	<path d="M830.5,892.7c-4.2-6.9-10.1-12.3-17.5-16.3c-7.5-4-15.9-5.9-25.4-5.9s-18.1,2-25.5,5.9s-13.3,9.4-17.5,16.4
		c-4.3,7-6.4,15-6.4,24s2.1,16.8,6.4,23.8c4.3,7,10.1,12.5,17.5,16.5c7.4,4,15.9,6,25.5,6s17.9-2,25.4-6c7.5-4,13.3-9.5,17.5-16.5
		s6.3-14.9,6.3-23.8S834.8,899.6,830.5,892.7z M807.5,930c-2,3.7-4.7,6.6-8.2,8.6c-3.5,2-7.3,3-11.7,3s-8.2-1-11.7-3
		c-3.5-2-6.2-4.9-8.3-8.6s-3.1-8.2-3.1-13.3s1-9.7,3.1-13.4s4.8-6.5,8.3-8.5c3.5-2,7.3-3,11.7-3s8.2,1,11.7,3s6.2,4.8,8.2,8.5
		c2,3.7,3,8.1,3,13.4S809.5,926.3,807.5,930z"/>
</g>
<g>
	<path class="st0" d="M590.7,601.8c5.6-31.9,8.6-108.3,8.6-108.3l-98.3-8.9l-45.5-154.1c-4.5-19.5,7.6-25.9,29.5-44.3
		c27.4-22.9,57.8-41.4,72.7-70.1c14.9-28.7,0.5-58.8-23.2-62.9c-44-7.5-140.4,8.7-140.4,8.7c-6.4-23.5,12.3-37.8,13-74.8
		S371,11,371,11c-57.7,55-40.9,97.2-28,117.4c12.9,20.2,15.9,42.4,15.9,42.4c-8.4,3.7-12.7,6.5-12.7,6.5
		c-20.2-23.7-21.5-53.5-43.2-78.3c-37.3-42.5-92.2-36.8-92.2-36.8c-5.8,79.9,42.8,110.9,66.5,119.3c23.7,8.4,39.4,21,39.4,21
		c-14.9,34.3,0,75.2,19.8,95c11.4,11.4,26.8,15.3,21.6,33c-8.6,31.5-54.8,73.6-100.7,210.3c-51.9-56.2-147-160.4-147-160.4
		c-5.3-5.8-14.1-6.9-20.6-2.5c-6.8,4.5-9.1,13.4-5.3,20.6L275.6,770h195.1c0,0,16.8-2.8,73.3-50c76.2-63.6,76.2-128.3,76.2-128.3
		C608.8,597.8,590.7,601.8,590.7,601.8L590.7,601.8z"/>
	<path class="st1" d="M404.5,609.5L387,546l38.1,34.7l3.5-39.9l-23.3-35.6l44.9-23.6l149,14.2c0,0-6.1,102.3-7.3,105.7
		c0,0-65,17.5-131.7,13.2L404.5,609.5L404.5,609.5z"/>
	<g>
		<path d="M556.9,717.3c68.8-62.2,69.7-122.9,69.7-125.5c0-2.2-1.2-4.3-3.1-5.5c-1.9-1.2-4.3-1.2-6.3-0.2c-5.5,3-12.9,5.4-18.7,7.1
			c4.7-35.2,7.1-96.6,7.2-99.4c0-0.4-0.1-0.8-0.2-1.2c-0.1-0.4,0-0.7-0.2-1.1c-0.2-0.5-0.4-0.8-0.7-1.2c-0.2-0.3-0.3-0.6-0.5-0.9
			c-0.3-0.4-0.8-0.7-1.2-1c-0.2-0.2-0.4-0.4-0.7-0.5c-0.6-0.3-1.3-0.5-2-0.6c-0.1,0-0.2-0.1-0.4-0.1l-31.1-2.8l2.7-17.3
			c2.8-18.2-9-35.6-27.1-39.6c-10-2.2-20.3,0-28.5,6.1c-8.2,6.1-13.2,15.4-14,25.6l-0.1,1.9c-0.8-2.6-1.8-5.1-3.2-7.3L461.7,329
			c-2.8-12.5,2.1-17.2,19.5-31.4c2.5-2,5.1-4.1,7.9-6.5c6.3-5.2,12.7-10.2,19-15.2c11.4-8.9,22.4-17.5,32.1-26.9c0,0,0,0,0,0
			c0,0,0,0,0,0c9.2-8.9,17.2-18.6,23.1-30c8.5-16.4,9.1-34.4,1.7-49.4c-6-12.1-16.5-20.3-28.8-22.6c0,0-0.1,0-0.2-0.1l-1.2-0.3
			c-0.1,0-0.2,0-0.4,0c-38.8-6.2-113.1,4.4-135.2,7.8c-0.6-7.9,1.9-15.1,5.2-24.3c3.9-10.8,8.6-24.3,9-43.1
			c0.8-39.2-36.2-78.9-37.8-80.6c-1.2-1.2-2.8-2-4.5-2c-1.7,0-3.4,0.6-4.6,1.8c-56.1,53.4-46.7,97.7-29,125.4
			c8.6,13.4,12.5,28,14.1,35.2c-1.5,0.7-2.8,1.4-3.9,2c-7.2-9.7-11.7-20.6-16.3-31.9c-5.8-14.2-11.9-28.9-23.7-42.4
			c-39.1-44.5-95.3-39.2-97.7-38.9c-3.1,0.3-5.5,2.8-5.7,5.9c-6.8,93.5,57.7,121.2,70.7,125.8c15.8,5.6,28,13.2,33.8,17.3
			c-12.7,35.6,1.9,76.1,23,97.3c3.3,3.3,6.9,6,10.1,8.5c8.9,6.7,12.4,9.8,10,18.3c0,0,0,0.1,0,0.1h0c-2.7,10-10.1,21.9-20.2,38.4
			c-19.2,31.2-47.9,77.8-76.9,161.4C202.3,471.7,116,377.1,115,376.1c-7.5-8.2-19.6-9.7-28.9-3.5c-9.5,6.3-12.7,18.7-7.5,28.9
			l173.9,337.8c-10.3,11.4-15.1,23.5-15.1,30.8c0,3.5,2.9,6.4,6.4,6.4h166.4h0h22.1h0h166.4c3.5,0,6.4-2.9,6.4-6.4
			C605.1,757.2,590.4,729.7,556.9,717.3L556.9,717.3z M408.2,603.4l-10.1-39.7l21.5,20.3c3.5,3.3,8,5,12.5,5c3.9,0,7.9-1.3,11.2-3.9
			c7.3-5.7,9.2-16,4.3-23.9l-34.1-55l31.2-16.2c2.8,23.5,10.2,86.1,14.3,117.9C440.4,607.2,423.3,605.5,408.2,603.4L408.2,603.4z
			 M461.6,473.5c-1.5-4.4-0.9-9,1.7-12.9s6.6-6.2,11.2-6.5c5-0.3,9.5,1.9,12.4,5.5l5.3,17.9l-30.2-2.7L461.6,473.5z M472,608.3
			c-4.1-31.7-12-98.4-14.7-121.1l42.4,3.8l-1.7,24.5c-0.2,3.5,2.4,6.6,5.9,6.8c3.6,0.2,6.6-2.4,6.8-5.9l1.7-24.2l41.6,3.8l-3.3,21.4
			c-0.5,3.5,1.8,6.8,5.3,7.3c0.3,0,0.7,0.1,1,0.1c3.1,0,5.8-2.3,6.3-5.4l3.5-22.2l25.8,2.3c-0.8,17.7-3.4,69.8-7.6,97.2
			C544.2,605.8,505.9,608.7,472,608.3L472,608.3z M523.6,443.9c5.2-3.9,11.8-5.3,18.1-3.9c11.4,2.5,19,13.5,17.2,25.1l-2.8,18.1
			l-42.6-3.9l1.3-19.2C515.2,453.7,518.4,447.8,523.6,443.9L523.6,443.9z M93.2,383.2c4-2.6,9.2-2,12.3,1.5
			c0.9,1,92.8,101.6,144.6,157.8c-2.4,8.1-8.4,29.1-12.7,50c-0.7,3.5,1.5,6.8,5,7.6c0.4,0.1,0.9,0.1,1.3,0.1c3,0,5.6-2.1,6.3-5.1
			c5.3-25.5,13.1-51.4,13.4-52.3c29.8-88.6,59.5-136.9,79.1-168.8c10.6-17.3,18.4-29.9,21.6-41.6c0,0,0,0,0,0c0,0,0,0,0,0
			c0,0,0,0,0-0.1l0,0c4.9-17.2-5.9-25.4-14.5-32c-3-2.3-6.1-4.6-8.8-7.3c-19.4-19.4-31.6-57.6-18.4-87.9c1.1-2.6,0.4-5.7-1.9-7.5
			c-0.7-0.5-16.9-13.4-41.3-22.1c-11.2-4-65.8-27.4-62.6-107.2c14.3,0,53.2,2.8,81.3,34.8c10.5,11.9,15.8,25,21.5,38.8
			c5.5,13.3,11.2,27.1,21.7,39.4c2.1,2.4,5.6,2.9,8.3,1.3c0,0,4.2-2.6,11.9-6.1c2.6-1.1,4.1-3.9,3.7-6.7c-0.1-1-3.3-23.9-16.8-45
			c-21.1-33.1-13.6-68.2,22.2-104.6c9.3,11.3,30.6,40,30.1,66.6c-0.3,16.7-4.5,28.6-8.3,39c-4.3,12-8.3,23.4-4.5,37.6
			c0.9,3.2,4,5.2,7.2,4.6c0.9-0.1,79.3-13.2,125.5-10.1c-3.3,5.4-5.1,11.7-5.1,18.2c0,19.8,16.1,35.9,35.9,35.9
			c0.4,0,0.7-0.1,1.1-0.1c-0.2,0.4-0.3,0.7-0.5,1.1c-5.2,10-12.5,18.8-21,27c-4.4,3.9-35.3,28.7-66.5-3.1c-2.5-2.5-6.5-2.6-9-0.1
			c-2.5,2.5-2.6,6.5-0.1,9c14.7,15,29.6,19.9,42.6,19.9c0.8,0,1.6-0.1,2.5-0.1c0,0-0.1,0-0.1,0.1c-6.5,5-13,10.1-19.4,15.5
			c-2.8,2.3-5.4,4.4-7.8,6.4c-17.3,14.1-28.7,23.3-23.9,44.2c0,0.1,0.1,0.2,0.2,0.4l-0.1,0l32.4,109.7c-2.6-0.6-5.3-0.9-8.1-0.7
			c-8.6,0.6-16.3,5-21,12.2c-4.1,6.1-5.5,13.4-4.1,20.4c-0.5,0.1-1,0.3-1.4,0.5l-40.3,21l-45.2-72.9c-1.9-3-5.8-3.9-8.8-2.1
			c-3,1.9-3.9,5.8-2.1,8.8l64.7,104.4l-14,15.7l-78.2-73.9c-2.6-2.4-6.6-2.3-9,0.3c-2.4,2.6-2.3,6.6,0.3,9l66.3,62.6l13.7,53.9
			c-36.7-6.3-58.9-14.5-59.4-14.7c-3.3-1.2-7,0.4-8.2,3.7c-1.3,3.3,0.4,7,3.7,8.2c3.4,1.3,61.5,22.9,146.8,22.9
			c34.5,0,73.3-3.5,114.8-13.3c0,0,0,0,0,0c0.9-0.2,10.7-2.4,20.5-6c-3.4,19.8-17,65.5-70.5,111.1c-6.8-1.4-14.3-2.2-22.3-2.2
			c-50.3,0-82.7,41-90.9,52.7h-15.3c-8.2-11.7-40.6-52.7-90.9-52.7c-26.8,0-46.6,8.5-60.4,19.3L90,395.6
			C87.8,391.2,89.2,385.9,93.2,383.2L93.2,383.2z"/>
		<path d="M437.3,223.4c11.5,0,20.9-9.4,20.9-20.9s-9.4-20.9-20.9-20.9s-20.9,9.4-20.9,20.9S425.8,223.4,437.3,223.4z"/>
	</g>
</g>
</svg>
