<svg viewBox="0 0 24 24" xmlns="http://www.w3.org/2000/svg"><path d="M6.8832 10.2501C6.8832 8.5288 8.27858 7.13342 9.99987 7.13342C11.7212 7.13342 13.1165 8.5288 13.1165 10.2501C13.1165 11.9714 11.7212 13.3667 9.99987 13.3667C8.27858 13.3667 6.8832 11.9714 6.8832 10.2501Z" fill="#000000"></path><path fill-rule="evenodd" clip-rule="evenodd" d="M7.9612 1.7C7.11061 1.7 6.30613 2.08665 5.77477 2.75086L4.82563 3.93728C4.69279 4.10333 4.49167 4.2 4.27902 4.2H2.79995C1.36401 4.2 0.199951 5.36406 0.199951 6.8V15.2C0.199951 16.6359 1.36401 17.8 2.79995 17.8H17.2C18.6359 17.8 19.7999 16.6359 19.7999 15.2V6.8C19.7999 5.36406 18.6359 4.2 17.2 4.2H15.7209C15.5082 4.2 15.3071 4.10333 15.1743 3.93728L14.2251 2.75085C13.6938 2.08665 12.8893 1.7 12.0387 1.7H7.9612ZM2.5 7.50001C2.5 7.03977 2.8731 6.66667 3.33333 6.66667H4.16667C4.6269 6.66667 5 7.03977 5 7.50001C5 7.96024 4.6269 8.33334 4.16667 8.33334H3.33333C2.8731 8.33334 2.5 7.96024 2.5 7.50001ZM9.99987 5.53342C7.39493 5.53342 5.2832 7.64514 5.2832 10.2501C5.2832 12.855 7.39493 14.9668 9.99987 14.9668C12.6048 14.9668 14.7165 12.855 14.7165 10.2501C14.7165 7.64514 12.6048 5.53342 9.99987 5.53342Z" fill="#000000"></path></svg>
