<svg viewBox="0 0 18 18" fill="none" xmlns="http://www.w3.org/2000/svg"><path fill-rule="evenodd" clip-rule="evenodd" fill="#f79900" d="M9.00001 13.9902L4.07814 17.249C3.82603 17.4159 3.4864 17.3468 3.31954 17.0946C3.23209 16.9624 3.20618 16.7987 3.24852 16.646L4.82561 10.956L0.206645 7.2801C-0.0299508 7.09181 -0.069175 6.7473 0.119035 6.5106C0.217682 6.38654 0.365225 6.31133 0.523532 6.30441L6.42009 6.04665L8.48727 0.515985C8.59316 0.232691 8.90855 0.0889087 9.19173 0.19484C9.34015 0.250361 9.45724 0.367501 9.51274 0.515985L11.5799 6.04665L17.4765 6.30441C17.7785 6.31762 18.0127 6.57327 17.9995 6.87544C17.9925 7.03381 17.9174 7.18141 17.7934 7.2801L13.1744 10.956L14.7515 16.646C14.8323 16.9374 14.6616 17.2392 14.3703 17.32C14.2176 17.3624 14.054 17.3365 13.9219 17.249L9.00001 13.9902Z"></path></svg>
