<svg xmlns="http://www.w3.org/2000/svg" width="64" height="16" fill="none"><path fill="#000" fill-rule="evenodd" d="M5.9 3.2H3.3c-.072 0-.13.06-.13.133V6c0 .074.058.133.13.133h2.6c.072 0 .13-.06.13-.133V3.333A.132.132 0 0 0 5.9 3.2ZM3.3 2C2.582 2 2 2.597 2 3.333V6c0 .736.582 1.333 1.3 1.333h2.6c.718 0 1.3-.597 1.3-1.333V3.333C7.2 2.597 6.618 2 5.9 2H3.3ZM5.9 9.867H3.3c-.072 0-.13.06-.13.133v2.667c0 .074.058.133.13.133h2.6c.072 0 .13-.06.13-.133V10a.132.132 0 0 0-.13-.133Zm-2.6-1.2C2.582 8.667 2 9.264 2 10v2.667C2 13.403 2.582 14 3.3 14h2.6c.718 0 1.3-.597 1.3-1.333V10c0-.736-.582-1.333-1.3-1.333H3.3ZM8.5 2.85a.55.55 0 0 1 .549-.55h5a.55.55 0 0 1 0 1.101h-5a.55.55 0 0 1-.55-.55ZM8.5 9.517a.55.55 0 0 1 .549-.55h5a.55.55 0 0 1 0 1.1h-5a.55.55 0 0 1-.55-.55ZM8.5 5.556c0-.325.295-.589.66-.589h3.079c.364 0 .66.264.66.59 0 .325-.296.589-.66.589h-3.08c-.364 0-.66-.264-.66-.59ZM8.5 12.223c0-.325.295-.589.66-.589h3.079c.364 0 .66.264.66.59 0 .325-.296.589-.66.589h-3.08c-.364 0-.66-.264-.66-.59Z" clip-rule="evenodd"/><path fill="#000" fill-rule="evenodd" d="M30 3.2h-2.667a.133.133 0 0 0-.133.133V6c0 .074.06.133.133.133H30c.074 0 .133-.06.133-.133V3.333A.133.133 0 0 0 30 3.2ZM27.333 2C26.597 2 26 2.597 26 3.333V6c0 .736.597 1.333 1.333 1.333H30c.736 0 1.333-.597 1.333-1.333V3.333C31.333 2.597 30.736 2 30 2h-2.667ZM30 9.867h-2.667A.133.133 0 0 0 27.2 10v2.666c0 .074.06.134.133.134H30c.074 0 .133-.06.133-.134V10A.133.133 0 0 0 30 9.867Zm-2.667-1.2C26.597 8.666 26 9.262 26 10v2.666c0 .737.597 1.334 1.333 1.334H30c.736 0 1.333-.597 1.333-1.334V10c0-.737-.597-1.334-1.333-1.334h-2.667ZM36.667 3.2H34a.133.133 0 0 0-.133.133V6c0 .074.06.133.133.133h2.667c.073 0 .133-.06.133-.133V3.333a.133.133 0 0 0-.133-.133ZM34 2c-.736 0-1.333.597-1.333 1.333V6c0 .736.597 1.333 1.333 1.333h2.667C37.403 7.333 38 6.736 38 6V3.333C38 2.597 37.403 2 36.667 2H34ZM36.667 9.867H34a.133.133 0 0 0-.133.133v2.666c0 .074.06.134.133.134h2.667c.073 0 .133-.06.133-.134V10a.133.133 0 0 0-.133-.133ZM34 8.667c-.736 0-1.333.596-1.333 1.333v2.666c0 .737.597 1.334 1.333 1.334h2.667c.736 0 1.333-.597 1.333-1.334V10c0-.737-.597-1.334-1.333-1.334H34Z" clip-rule="evenodd"/><path fill="#000" d="m54.002 2.1.248-.535a.59.59 0 0 0-.474-.01l.225.545Zm0 9.946.225.545.365-.15v-.395h-.59ZM58 13.9l-.248.535a.59.59 0 0 0 .474.01L58 13.9Zm3.939-1.632-.226-.545.226.545ZM50.14 13.643l.226.545-.226-.545ZM61.861 2.355l.226.545-.226-.545ZM50.063 3.729l.225.545-.225-.545Zm.225.545 3.939-1.629-.451-1.09-3.939 1.629.451 1.09ZM53.411 2.1v9.946h1.18V2.1h-1.18Zm.365 9.4-3.861 1.598.45 1.09 3.862-1.597-.451-1.09Zm-4.365-7.68v9.732h1.18V3.82h-1.18Zm4.342-1.185 3.999 1.854.496-1.07-3.998-1.854-.497 1.07ZM58.226 4.5l3.86-1.599-.45-1.09-3.862 1.599.452 1.09Zm3.184-2.054v9.733h1.18V2.445h-1.18Zm.303 9.279-3.939 1.631.452 1.09 3.939-1.631-.452-1.09Zm-4.303-7.77V13.9h1.18V3.954h-1.18Zm.838 9.41-4-1.853-.496 1.07 4 1.854.496-1.07Zm3.162-1.186c0-.204.124-.38.303-.455l.452 1.09a.688.688 0 0 0 .425-.635h-1.18Zm-11.495.92a.49.49 0 0 1 .677.454h-1.18a.69.69 0 0 0 .954.636l-.451-1.09ZM62.087 2.9a.49.49 0 0 1-.677-.455h1.18a.69.69 0 0 0-.955-.635l.452 1.09Zm-12.25.284a.688.688 0 0 0-.426.636h1.18c0 .203-.123.38-.303.454l-.45-1.09Z"/></svg>