<svg viewBox="0 0 24 24" xmlns="http://www.w3.org/2000/svg" style="width: 16px; height: 16px; color: rgb(0, 0, 0);"><path d="M20.78 2.625a1 1 0 0 0-1.56-1.25l-2.953 3.691A4.502 4.502 0 0 0 7.5 6.5a4.5 4.5 0 0 0 4.038 4.477L9.92 13c-.615 0-1.135.004-1.571.038-.511.04-.982.125-1.435.336a4 4 0 0 0-1.662 1.442c-.273.418-.424.872-.535 1.372-.107.48-.191 1.069-.293 1.78l-.33 2.316-.874 1.091a1 1 0 0 0 1.562 1.25l16-20ZM19 22H7.842l7.193-8.991c.222.005.428.014.617.03.511.039.982.124 1.435.335a4 4 0 0 1 1.662 1.442c.273.418.424.872.535 1.372.107.48.191 1.069.293 1.78l.413 2.89A1 1 0 0 1 19 22Z" fill="currentColor"></path></svg>
