<svg viewBox="0 0 24 24" xmlns="http://www.w3.org/2000/svg" style="width: 16px; height: 16px; color: rgb(0, 0, 0);"><path d="M3 4.6C3 4.03995 3 3.75992 3.10899 3.54601C3.20487 3.35785 3.35785 3.20487 3.54601 3.10899C3.75992 3 4.03995 3 4.6 3H19.4C19.9601 3 20.2401 3 20.454 3.10899C20.6422 3.20487 20.7951 3.35785 20.891 3.54601C21 3.75992 21 4.03995 21 4.6V11.4C21 11.9601 21 12.2401 20.891 12.454C20.7951 12.6422 20.6422 12.7951 20.454 12.891C20.2401 13 19.9601 13 19.4 13H4.6C4.03995 13 3.75992 13 3.54601 12.891C3.35785 12.7951 3.20487 12.6422 3.10899 12.454C3 12.2401 3 11.9601 3 11.4V4.6ZM3 16C3 15.4477 3.44772 15 4 15H20C20.5523 15 21 15.4477 21 16C21 16.5523 20.5523 17 20 17H4C3.44772 17 3 16.5523 3 16ZM4 19C3.44772 19 3 19.4477 3 20C3 20.5523 3.44772 21 4 21H12C12.5523 21 13 20.5523 13 20C13 19.4477 12.5523 19 12 19H4Z" fill="currentColor"></path></svg>
