<svg viewBox="0 0 24 24" xmlns="http://www.w3.org/2000/svg" style="width: 16px; height: 16px; color: rgb(0, 0, 0);"><path d="M2.5 14V8a4 4 0 0 1 4-4h11a4 4 0 0 1 4 4v6a4 4 0 0 1-4 4h-5.63l-4.075 3.452c-.688.54-1.678-.056-1.522-.917L6.69 18H6.5a4 4 0 0 1-4-4Zm7.313.775L12 13.327l2.188 1.448a.243.243 0 0 0 .368-.268l-.7-2.529 2.052-1.634a.243.243 0 0 0-.14-.433l-2.621-.115-.92-2.458a.243.243 0 0 0-.455 0l-.919 2.458-2.62.115a.243.243 0 0 0-.141.433l2.053 1.634-.701 2.529a.244.244 0 0 0 .369.268Z" fill="currentColor"></path></svg>
