<svg xmlns="http://www.w3.org/2000/svg" fill="none" viewBox="0 0 36 36"><g fill="#8B3FFD" clip-path="url(#clip0)"><path d="M21.7981 6c-6.6835 0-12 5.3924-12 12 0 6.6835 5.3924 12 12 12s12-5.3924 12-12-5.3924-12-12-12zm0 16.481c-2.4304 0-4.481-2.0506-4.481-4.481 0-2.4304 2.0506-4.481 4.481-4.481 2.4304 0 4.481 2.0506 4.481 4.481-.0758 2.4304-2.0506 4.481-4.481 4.481zM9.72152 9.49365V26.962H5.46836L0 9.49365h9.72152z"/></g><defs><clipPath id="clip0"><path fill="#fff" d="M0 0h33.8v24H0z" transform="translate(0 6)"/></clipPath></defs></svg>
