<svg xmlns="http://www.w3.org/2000/svg" fill="none" viewBox="0 0 36 36"><g clip-path="url(#clip0)"><path fill="#21A038" d="M29.9545 8.84277c.7094.91479 1.3005 1.91813 1.8029 2.98043L18.1023 21.8859l-5.734-3.6002v-4.3083l5.7044 3.5706 11.8818-8.70523z"/><path fill="url(#paint0_linear)" d="M6.54565 17.9906c0-.2065 0-.3836.02956-.5902l-3.45813-.177c0 .2361-.02956.5016-.02956.7377 0 4.1313 1.68473 7.879 4.40394 10.5939l2.45321-2.4493c-2.09853-2.0657-3.39902-4.9281-3.39902-8.1151z"/><path fill="url(#paint1_linear)" d="M18.0727 6.48213c.2069 0 .3843 0 .5912.02951l.1773-3.45259c-.2364 0-.5025-.02951-.7389-.02951-4.1379 0-7.8916 1.68203-10.61084 4.39688l2.4532 2.44928c2.06894-2.09516 4.96554-3.39357 8.12804-3.39357z"/><path fill="url(#paint2_linear)" d="M18.0728 29.4994c-.2069 0-.3842 0-.5911-.0295l-.1774 3.4526c.2365 0 .5025.0295.7389.0295 4.138 0 7.8917-1.682 10.6109-4.3969l-2.4532-2.4493c-2.069 2.1247-4.936 3.3936-8.1281 3.3936z"/><path fill="url(#paint3_linear)" d="M24.5753 8.48873l2.9261-2.15418C24.93 4.2689 21.6492 3 18.0729 3v3.45259c2.4236.02951 4.6699.76724 6.5024 2.03614z"/><path fill="#21A038" d="M33.0876 17.9908c0-.9148-.0887-1.8001-.2365-2.6854l-3.2216 2.3903v.2951c0 3.3935-1.4779 6.433-3.8128 8.5281l2.3349 2.5674c3.0148-2.7149 4.936-6.6987 4.936-11.0955z"/><path fill="url(#paint4_linear)" d="M18.0729 29.4993c-3.399 0-6.4434-1.4754-8.54188-3.8067l-2.57143 2.3313c2.74877 3.0394 6.70941 4.928 11.11331 4.928v-3.4526z"/><path fill="url(#paint5_linear)" d="M10.3585 9.46257L8.02348 6.89526C4.97915 9.63963 3.08752 13.5939 3.08752 17.9908h3.45813c0-3.3641 1.47783-6.4331 3.81285-8.52823z"/></g><defs><linearGradient id="paint0_linear" x1="7.13375" x2="3.60437" y1="28.1349" y2="17.9493" gradientUnits="userSpaceOnUse"><stop offset=".1444" stop-color="#F2E913"/><stop offset=".3037" stop-color="#E7E518"/><stop offset=".5823" stop-color="#CADB26"/><stop offset=".891" stop-color="#A3CD39"/></linearGradient><linearGradient id="paint1_linear" x1="8.4772" x2="17.4455" y1="7.02613" y2="3.61396" gradientUnits="userSpaceOnUse"><stop offset=".0592" stop-color="#0FA8E0"/><stop offset=".5385" stop-color="#0099F9"/><stop offset=".9234" stop-color="#0291EB"/></linearGradient><linearGradient id="paint2_linear" x1="17.1013" x2="27.7901" y1="30.0068" y2="27.5949" gradientUnits="userSpaceOnUse"><stop offset=".1226" stop-color="#A3CD39"/><stop offset=".2846" stop-color="#86C339"/><stop offset=".8693" stop-color="#21A038"/></linearGradient><linearGradient id="paint3_linear" x1="17.3624" x2="26.2514" y1="5.20903" y2="7.94731" gradientUnits="userSpaceOnUse"><stop offset=".0566" stop-color="#0291EB"/><stop offset=".79" stop-color="#0C8ACB"/></linearGradient><linearGradient id="paint4_linear" x1="7.83888" x2="17.384" y1="28.5847" y2="32.1453" gradientUnits="userSpaceOnUse"><stop offset=".1324" stop-color="#F2E913"/><stop offset=".2977" stop-color="#EBE716"/><stop offset=".5306" stop-color="#D9E01F"/><stop offset=".8023" stop-color="#BBD62D"/><stop offset=".9829" stop-color="#A3CD39"/></linearGradient><linearGradient id="paint5_linear" x1="5.71884" x2="9.53535" y1="18.4078" y2="8.49553" gradientUnits="userSpaceOnUse"><stop offset=".0698" stop-color="#A3CD39"/><stop offset=".2599" stop-color="#81C55F"/><stop offset=".9216" stop-color="#0FA8E0"/></linearGradient><clipPath id="clip0"><path fill="#fff" d="M0 0h30v30H0z" transform="translate(3 3)"/></clipPath></defs></svg>
