<svg fill="none" xmlns="http://www.w3.org/2000/svg" viewBox="0 0 32 29"><path d="M2 25.333c0-.56 0-.84.109-1.054.096-.188.249-.34.437-.437.214-.109.494-.109 1.054-.109h24.8c.56 0 .84 0 1.054.11.188.095.341.248.437.436.109.214.109.494.109 1.054v1.4H2v-1.4z" fill="url(#paint0_linear)"/><path d="M0 27.333c0-.56 0-.84.109-1.054.096-.188.249-.34.437-.437.214-.109.494-.109 1.054-.109h28.8c.56 0 .84 0 1.054.11.188.095.341.248.437.436.109.214.109.494.109 1.054v1.4H0v-1.4z" fill="url(#paint1_linear)"/><path fill-rule="evenodd" clip-rule="evenodd" d="M19 12.733h-6v9a2 2 0 01-4 0v-9H4v11h24v-11h-5v9a2 2 0 01-4 0v-9z" fill="url(#paint2_linear)"/><path fill-rule="evenodd" clip-rule="evenodd" d="M1.104 8.296C1 8.606 1 8.956 1 9.653v1.08h30v-1.08c0-.698 0-1.047-.104-1.357a1.995 1.995 0 00-.442-.736c-.224-.238-.532-.402-1.148-.73L17.506.536c-.551-.294-.826-.44-1.117-.498a1.995 1.995 0 00-.778 0c-.291.058-.566.204-1.117.498L2.694 6.83c-.616.33-.924.493-1.148.731-.199.21-.35.462-.442.736zM16 2.733a3 3 0 100 6 3 3 0 000-6z" fill="url(#paint3_linear)"/><defs><linearGradient id="paint0_linear" x1="2" y1="12.733" x2="2" y2="26.733" gradientUnits="userSpaceOnUse"><stop stop-color="#E0E0E0"/><stop offset="1" stop-color="#B8B8B8"/></linearGradient><linearGradient id="paint1_linear" x1="32" y1="28.733" x2="32" y2="25.733" gradientUnits="userSpaceOnUse"><stop stop-color="#B8B8B8"/><stop offset="1" stop-color="#858585"/></linearGradient><linearGradient id="paint2_linear" x1="4" y1="12.733" x2="4" y2="25.733" gradientUnits="userSpaceOnUse"><stop stop-color="#B8B8B8"/><stop offset="1" stop-color="#E0E0E0"/></linearGradient><linearGradient id="paint3_linear" x1="1" y1="0" x2="1" y2="10.733" gradientUnits="userSpaceOnUse"><stop stop-color="#E0E0E0"/><stop offset="1" stop-color="#B8B8B8"/></linearGradient></defs></svg>
