<svg fill="none" xmlns="http://www.w3.org/2000/svg" viewBox="0 0 32 22"><path fill-rule="evenodd" clip-rule="evenodd" d="M0 3.2c0-1.12 0-1.68.218-2.108a2 2 0 01.874-.874C1.52 0 2.08 0 3.2 0h25.6c1.12 0 1.68 0 2.108.218a2 2 0 01.874.874C32 1.52 32 2.08 32 3.2v15.6c0 1.12 0 1.68-.218 2.108a2 2 0 01-.874.874C30.48 22 29.92 22 28.8 22H3.2c-1.12 0-1.68 0-2.108-.218a2 2 0 01-.874-.874C0 20.48 0 19.92 0 18.8V3.2z" fill="url(#paint0_linear)"/><path opacity=".4" d="M0 4h32v4H0V4z" fill="#000"/><defs><linearGradient id="paint0_linear" x1="32" y1="22" x2="32" y2="0" gradientUnits="userSpaceOnUse"><stop stop-color="#0AF"/><stop offset="1" stop-color="#4BCEFF"/></linearGradient></defs></svg>
